# This file uses centimeters as units for non-parametric coordinates.

v -240.000000 17.810680 30.310047
v 240.000000 17.810728 30.310047
v -240.000000 44.059174 30.857229
v 240.000000 44.059174 30.857229
v -240.000000 -44.059174 93.968475
v 240.000000 -44.059174 93.968475
v 240.000000 44.059174 93.968475
v -240.000000 44.059174 93.968475
v 240.000000 -44.059174 30.838163
v 240.000000 -19.225964 30.267399
v 240.000000 -15.190087 7.241932
v 240.000000 12.664208 7.284580
v -240.000000 12.664197 7.284580
v -240.000000 -44.059174 30.838161
v -240.000000 -19.226042 30.267399
v -240.000000 -15.190138 7.241932
vt 0.750585 0.001951
vt 0.878845 0.001951
vt 0.880005 0.052404
vt 0.926785 0.060603
vt 0.926699 0.117194
vt 0.879918 0.127650
vt 0.878806 0.180979
vt 0.750585 0.180979
vt 0.869747 0.184970
vt 0.998008 0.184970
vt 0.998008 0.363999
vt 0.869786 0.363999
vt 0.868674 0.310670
vt 0.821894 0.300214
vt 0.821807 0.243623
vt 0.868588 0.235423
vt 0.001992 0.977158
vt 0.001992 0.001951
vt 0.048772 0.001951
vt 0.048772 0.977158
vt 0.304274 0.977158
vt 0.304274 0.001951
vt 0.432496 0.001951
vt 0.432496 0.977158
vt 0.438752 0.001951
vt 0.567013 0.001951
vt 0.567013 0.977158
vt 0.438752 0.977158
vt 0.573230 0.001951
vt 0.620010 0.001951
vt 0.620010 0.977158
vt 0.573230 0.977158
vt 0.110086 0.977158
vt 0.056758 0.977158
vt 0.056758 0.001951
vt 0.110086 0.001951
vt 0.117175 0.977158
vt 0.117175 0.001951
vt 0.296204 0.001951
vt 0.296204 0.977158
vt 0.684392 0.977157
vt 0.627801 0.977157
vt 0.627801 0.001950
vt 0.684392 0.001950
vt 0.692116 0.001950
vt 0.742569 0.001950
vt 0.742569 0.977157
vt 0.692116 0.977157
vn -0.000000 0.975920 -0.218131
vn -0.000000 0.975920 -0.218131
vn -0.000000 0.975920 -0.218131
vn -0.000000 0.975920 -0.218131
vn -0.000000 0.020842 -0.999783
vn -0.000000 0.020842 -0.999783
vn -0.000000 0.020842 -0.999783
vn -0.000000 0.020842 -0.999783
vn 0.000000 0.000000 1.000000
vn 0.000000 0.000000 1.000000
vn 0.000000 0.000000 1.000000
vn 0.000000 0.000000 1.000000
vn 0.000000 1.000000 0.000000
vn 0.000000 1.000000 0.000000
vn 0.000000 1.000000 0.000000
vn 0.000000 1.000000 0.000000
vn 1.000000 0.000000 0.000000
vn 1.000000 0.000000 0.000000
vn 1.000000 0.000000 0.000000
vn 1.000000 0.000000 0.000000
vn 1.000000 0.000000 0.000000
vn 1.000000 0.000000 0.000000
vn 1.000000 0.000000 0.000000
vn 1.000000 0.000000 0.000000
vn 0.000000 -1.000000 0.000000
vn 0.000000 -1.000000 0.000000
vn 0.000000 -1.000000 0.000000
vn 0.000000 -1.000000 0.000000
vn 0.000000 -0.984984 -0.172647
vn 0.000000 -0.984984 -0.172647
vn 0.000000 -0.984984 -0.172647
vn 0.000000 -0.984984 -0.172647
vn -0.000000 0.001531 -0.999999
vn -0.000000 0.001531 -0.999999
vn -0.000000 0.001531 -0.999999
vn -0.000000 0.001531 -0.999999
vn 0.000000 -0.022978 -0.999736
vn 0.000000 -0.022978 -0.999736
vn 0.000000 -0.022978 -0.999736
vn 0.000000 -0.022978 -0.999736
vn -1.000000 0.000000 0.000000
vn -1.000000 0.000000 0.000000
vn -1.000000 0.000000 0.000000
vn -1.000000 0.000000 0.000000
vn -1.000000 0.000000 0.000000
vn -1.000000 0.000000 0.000000
vn -1.000000 0.000000 0.000000
vn -1.000000 0.000000 0.000000
f 1/17/1 2/18/2 12/19/3 13/20/4
f 1/33/5 3/34/6 4/35/7 2/36/8
f 5/37/9 6/38/10 7/39/11 8/40/12
f 8/21/13 7/22/14 4/23/15 3/24/16
f 6/1/17 9/2/18 10/3/19 11/4/20 12/5/21 2/6/22 4/7/23 7/8/24
f 9/25/25 6/26/26 5/27/27 14/28/28
f 11/29/29 10/30/30 15/31/31 16/32/32
f 16/41/33 13/42/34 12/43/35 11/44/36
f 10/45/37 9/46/38 14/47/39 15/48/40
f 14/9/41 5/10/42 8/11/43 3/12/44 1/13/45 13/14/46 16/15/47 15/16/48
